<svg xmlns="http://www.w3.org/2000/svg" viewBox="0 0 64 64">
  <rect width="64" height="64" rx="12" fill="#1a1a2e"/>
  <ellipse cx="32" cy="38" rx="14" ry="16" fill="#66bb6a"/>
  <line x1="32" y1="22" x2="32" y2="54" stroke="#43a047" stroke-width="2"/>
  <ellipse cx="32" cy="22" rx="9" ry="8" fill="#43a047"/>
  <circle cx="28" cy="20" r="3" fill="#fff"/>
  <circle cx="36" cy="20" r="3" fill="#fff"/>
  <circle cx="28" cy="20" r="1.5" fill="#1a1a2e"/>
  <circle cx="36" cy="20" r="1.5" fill="#1a1a2e"/>
  <line x1="26" y1="14" x2="20" y2="6" stroke="#43a047" stroke-width="2" stroke-linecap="round"/>
  <line x1="38" y1="14" x2="44" y2="6" stroke="#43a047" stroke-width="2" stroke-linecap="round"/>
  <circle cx="20" cy="6" r="2" fill="#aed581"/>
  <circle cx="44" cy="6" r="2" fill="#aed581"/>
  <line x1="18" y1="32" x2="10" y2="28" stroke="#66bb6a" stroke-width="2" stroke-linecap="round"/>
  <line x1="18" y1="40" x2="10" y2="42" stroke="#66bb6a" stroke-width="2" stroke-linecap="round"/>
  <line x1="18" y1="48" x2="12" y2="54" stroke="#66bb6a" stroke-width="2" stroke-linecap="round"/>
  <line x1="46" y1="32" x2="54" y2="28" stroke="#66bb6a" stroke-width="2" stroke-linecap="round"/>
  <line x1="46" y1="40" x2="54" y2="42" stroke="#66bb6a" stroke-width="2" stroke-linecap="round"/>
  <line x1="46" y1="48" x2="52" y2="54" stroke="#66bb6a" stroke-width="2" stroke-linecap="round"/>
  <ellipse cx="32" cy="38" rx="6" ry="8" fill="#81c784" opacity="0.5"/>
</svg>
