<svg xmlns="http://www.w3.org/2000/svg" width="256" height="32" viewBox="0 0 256 32" shape-rendering="crispEdges">
  <defs>
    <g id="shadow"><rect x="10" y="28" width="12" height="2" fill="#000" opacity=".25"/></g>
  </defs>

  <g transform="translate(0 0)">
    <use href="#shadow"/>
    <rect x="10" y="4" width="12" height="10" fill="#ffd7b0"/>
    <rect x="9" y="2" width="14" height="4" fill="#5c6bc0"/>
    <rect x="10" y="14" width="12" height="10" fill="#4fc3f7"/>
    <rect x="10" y="21" width="12" height="2" fill="#0288d1"/>
    <rect x="11" y="25" width="4" height="4" fill="#37474f"/>
    <rect x="17" y="25" width="4" height="4" fill="#37474f"/>
    <rect x="12" y="8" width="2" height="2" fill="#1a1a2e"/>
    <rect x="18" y="8" width="2" height="2" fill="#1a1a2e"/>
    <rect x="15" y="11" width="2" height="1" fill="#8d4f3a"/>
  </g>

  <g transform="translate(32 0)">
    <use href="#shadow"/>
    <rect x="10" y="4" width="12" height="10" fill="#ffd7b0"/>
    <rect x="9" y="2" width="14" height="4" fill="#5c6bc0"/>
    <rect x="10" y="14" width="12" height="10" fill="#4fc3f7"/>
    <rect x="10" y="21" width="12" height="2" fill="#0288d1"/>
    <rect x="10" y="25" width="4" height="4" fill="#37474f"/>
    <rect x="18" y="24" width="4" height="4" fill="#37474f"/>
    <rect x="12" y="8" width="2" height="2" fill="#1a1a2e"/>
    <rect x="18" y="8" width="2" height="2" fill="#1a1a2e"/>
    <rect x="15" y="11" width="2" height="1" fill="#8d4f3a"/>
  </g>

  <g transform="translate(64 0)">
    <use href="#shadow"/>
    <rect x="10" y="4" width="12" height="10" fill="#ffd7b0"/>
    <rect x="9" y="2" width="14" height="4" fill="#5c6bc0"/>
    <rect x="10" y="14" width="12" height="10" fill="#4fc3f7"/>
    <rect x="10" y="21" width="12" height="2" fill="#0288d1"/>
    <rect x="11" y="25" width="4" height="4" fill="#37474f"/>
    <rect x="17" y="25" width="4" height="4" fill="#37474f"/>
    <rect x="12" y="8" width="8" height="2" fill="#8d6e63"/>
    <rect x="10" y="5" width="12" height="3" fill="#4a57ab"/>
  </g>

  <g transform="translate(96 0)">
    <use href="#shadow"/>
    <rect x="10" y="4" width="12" height="10" fill="#ffd7b0"/>
    <rect x="9" y="2" width="14" height="4" fill="#5c6bc0"/>
    <rect x="10" y="14" width="12" height="10" fill="#4fc3f7"/>
    <rect x="10" y="21" width="12" height="2" fill="#0288d1"/>
    <rect x="10" y="25" width="4" height="4" fill="#37474f"/>
    <rect x="18" y="24" width="4" height="4" fill="#37474f"/>
    <rect x="12" y="8" width="8" height="2" fill="#8d6e63"/>
    <rect x="10" y="5" width="12" height="3" fill="#4a57ab"/>
  </g>

  <g transform="translate(128 0)">
    <use href="#shadow"/>
    <rect x="10" y="4" width="12" height="10" fill="#ffd7b0"/>
    <rect x="9" y="2" width="14" height="4" fill="#5c6bc0"/>
    <rect x="10" y="14" width="12" height="10" fill="#4fc3f7"/>
    <rect x="10" y="21" width="12" height="2" fill="#0288d1"/>
    <rect x="11" y="25" width="4" height="4" fill="#37474f"/>
    <rect x="17" y="25" width="4" height="4" fill="#37474f"/>
    <rect x="11" y="8" width="2" height="2" fill="#1a1a2e"/>
    <rect x="12" y="9" width="1" height="1" fill="#fff"/>
    <rect x="10" y="5" width="6" height="3" fill="#5c6bc0"/>
  </g>

  <g transform="translate(160 0)">
    <use href="#shadow"/>
    <rect x="10" y="4" width="12" height="10" fill="#ffd7b0"/>
    <rect x="9" y="2" width="14" height="4" fill="#5c6bc0"/>
    <rect x="10" y="14" width="12" height="10" fill="#4fc3f7"/>
    <rect x="10" y="21" width="12" height="2" fill="#0288d1"/>
    <rect x="10" y="24" width="4" height="4" fill="#37474f"/>
    <rect x="18" y="25" width="4" height="4" fill="#37474f"/>
    <rect x="11" y="8" width="2" height="2" fill="#1a1a2e"/>
    <rect x="12" y="9" width="1" height="1" fill="#fff"/>
    <rect x="10" y="5" width="6" height="3" fill="#5c6bc0"/>
  </g>

  <g transform="translate(192 0)">
    <use href="#shadow"/>
    <rect x="10" y="4" width="12" height="10" fill="#ffd7b0"/>
    <rect x="9" y="2" width="14" height="4" fill="#5c6bc0"/>
    <rect x="10" y="14" width="12" height="10" fill="#4fc3f7"/>
    <rect x="10" y="21" width="12" height="2" fill="#0288d1"/>
    <rect x="11" y="25" width="4" height="4" fill="#37474f"/>
    <rect x="17" y="25" width="4" height="4" fill="#37474f"/>
    <rect x="19" y="8" width="2" height="2" fill="#1a1a2e"/>
    <rect x="19" y="9" width="1" height="1" fill="#fff"/>
    <rect x="16" y="5" width="6" height="3" fill="#5c6bc0"/>
  </g>

  <g transform="translate(224 0)">
    <use href="#shadow"/>
    <rect x="10" y="4" width="12" height="10" fill="#ffd7b0"/>
    <rect x="9" y="2" width="14" height="4" fill="#5c6bc0"/>
    <rect x="10" y="14" width="12" height="10" fill="#4fc3f7"/>
    <rect x="10" y="21" width="12" height="2" fill="#0288d1"/>
    <rect x="10" y="25" width="4" height="4" fill="#37474f"/>
    <rect x="18" y="24" width="4" height="4" fill="#37474f"/>
    <rect x="19" y="8" width="2" height="2" fill="#1a1a2e"/>
    <rect x="19" y="9" width="1" height="1" fill="#fff"/>
    <rect x="16" y="5" width="6" height="3" fill="#5c6bc0"/>
  </g>
</svg>
